<svg xmlns="http://www.w3.org/2000/svg" width="25.091" height="21.983" viewBox="0 0 25.091 21.983">
  <g id="vectopus-logo" transform="translate(-528.366 -586.031)">
    <path id="Path_39686" data-name="Path 39686" d="M547.781,586.037l-.072,0c-.058,0-.116,0-.174,0h-.023a5.944,5.944,0,0,0-5.1,2.884l-1.727,2.873h0l-3.609,6.005a1.724,1.724,0,0,1-2.955,0l-2.788-4.639a1.583,1.583,0,0,0-2.771,1.527l.029.057h0l2.97,4.942a4.607,4.607,0,0,0,7.9,0l2.3-3.82a.77.77,0,0,1,1.248-.1l.011.013a.777.777,0,0,1,.072.9l-2.289,3.809a6.118,6.118,0,0,1-5.286,2.99,6.236,6.236,0,0,1-1.652-.222.021.021,0,0,0-.022.035,5.642,5.642,0,0,0,9.063-.83l2.618-4.356a.766.766,0,0,1,.816-.351l.016,0a.763.763,0,0,1,.512,1.14l-2.625,4.367a7.143,7.143,0,0,1-6.171,3.491,7.3,7.3,0,0,1-1.706-.2.021.021,0,0,0-.018.038,7.223,7.223,0,0,0,3.628,1.391,7.419,7.419,0,0,0,7.03-3.606l5.608-9.331a5.92,5.92,0,0,0,.851-3.088s0,0,0,0A5.922,5.922,0,0,0,547.781,586.037Z" transform="translate(0 0)"/>
    <path id="Path_39687" data-name="Path 39687" d="M606.272,611.062h0l.872,1.451a1.582,1.582,0,0,0,2.79-1.483l-2.822-4.7h0l-.872-1.451a1.582,1.582,0,0,0-2.791,1.483Z" transform="translate(-72.928 -17.591)"/>
    <path id="Path_39688" data-name="Path 39688" d="M826.779,628.731a1.578,1.578,0,0,0,2.759-1.529l-.549-.911a1.582,1.582,0,0,0-2.8,1.456Z" transform="translate(-289.777 -38.432)"/>
  </g>
</svg>
