<svg xmlns="http://www.w3.org/2000/svg" width="396.582" height="347.466" viewBox="0 0 396.582 347.466">
  <g id="vectopus-bg-img" transform="translate(396.582 347.466) rotate(180)" opacity="0.05">
    <path id="Path_39686" data-name="Path 39686" d="M89.717,347.368c.38.017.761.016,1.141.029.917.027,1.83.07,2.753.07.124,0,.243-.008.366-.009a93.959,93.959,0,0,0,80.638-45.59l27.294-45.411.006.011,57.051-94.921a27.247,27.247,0,0,1,46.707,0l44.072,73.327c16.551,27.539,58.412,4.471,43.79-24.139q-.23-.45-.467-.9l-.013-.022L346.109,131.7a72.818,72.818,0,0,0-124.823,0L185,192.075a12.166,12.166,0,0,1-19.729,1.575l-.171-.2a12.281,12.281,0,0,1-1.136-14.241L200.15,119A96.706,96.706,0,0,1,283.7,71.737a98.588,98.588,0,0,1,26.113,3.5.337.337,0,0,0,.345-.546A89.184,89.184,0,0,0,166.91,87.8l-41.378,68.844a12.113,12.113,0,0,1-12.891,5.546l-.259-.052a12.062,12.062,0,0,1-8.095-18.014L145.774,75.1A112.9,112.9,0,0,1,243.317,19.92,115.429,115.429,0,0,1,270.279,23.1a.336.336,0,0,0,.281-.6A114.169,114.169,0,0,0,213.213.519c-44.81-4.3-87.933,18.414-111.122,57L13.448,205A93.571,93.571,0,0,0,0,253.8c0,.017,0,.034,0,.051A93.6,93.6,0,0,0,89.717,347.368Z" transform="translate(0 0)" fill="#909090"/>
    <path id="Path_39687" data-name="Path 39687" d="M60.595,35.3h0L46.808,12.367C30.392-14.946-10.893,7.528,2.7,35.811l44.606,74.215h0l13.785,22.936c16.416,27.313,57.7,4.84,44.107-23.441Z" transform="translate(257.312 194.572)" fill="#909090"/>
    <path id="Path_39688" data-name="Path 39688" d="M46.321,12.094A24.942,24.942,0,0,0,2.713,36.255l8.684,14.4C27.729,77.83,68.662,55.727,55.7,27.652Z" transform="translate(213.747 267.911)" fill="#909090"/>
  </g>
</svg>
